<?xml version="1.0" encoding="UTF-8" standalone="no"?>
<!-- Created with Inkscape (http://www.inkscape.org/) -->

<svg
   width="500pt"
   height="342.92511pt"
   viewBox="0 0 176.38889 120.97636"
   version="1.1"
   id="svg5"
   sodipodi:docname="showcase-index.svg"
   inkscape:version="1.1 (c68e22c387, 2021-05-23)"
   inkscape:export-filename="C:\Users\Sadeem\Desktop\bitmap.png"
   inkscape:export-xdpi="300"
   inkscape:export-ydpi="300"
   xmlns:inkscape="http://www.inkscape.org/namespaces/inkscape"
   xmlns:sodipodi="http://sodipodi.sourceforge.net/DTD/sodipodi-0.dtd"
   xmlns="http://www.w3.org/2000/svg"
   xmlns:svg="http://www.w3.org/2000/svg">
  <sodipodi:namedview
     id="namedview7"
     pagecolor="#ffffff"
     bordercolor="#999999"
     borderopacity="1"
     inkscape:pageshadow="0"
     inkscape:pageopacity="0"
     inkscape:pagecheckerboard="0"
     inkscape:document-units="mm"
     showgrid="false"
     units="pt"
     inkscape:zoom="0.9814281"
     inkscape:cx="301.09185"
     inkscape:cy="228.74829"
     inkscape:window-width="1920"
     inkscape:window-height="991"
     inkscape:window-x="-9"
     inkscape:window-y="-9"
     inkscape:window-maximized="1"
     inkscape:current-layer="g32894"
     fit-margin-top="0"
     fit-margin-left="0"
     fit-margin-right="0"
     fit-margin-bottom="0" />
  <defs
     id="defs2" />
  <g
     inkscape:label="Layer 1"
     inkscape:groupmode="layer"
     id="layer1"
     transform="translate(-28.111949,-32.692127)"
     style="display:none"
     sodipodi:insensitive="true">
    <g
       id="g6896"
       transform="matrix(1.8014253,0,0,1.8014253,-62.342974,-64.767344)"
       inkscape:export-filename="C:\Users\Sadeem\Desktop\g6896.png"
       inkscape:export-xdpi="300"
       inkscape:export-ydpi="300">
      <g
         id="g850">
        <g
           id="g5815"
           transform="matrix(1.6416934,0,0,1.6416934,-73.426088,-58.225048)">
          <g
             id="g6011"
             transform="translate(-0.91157843)">
            <path
               d="m 131.05386,84.107173 c 0,0 -0.77028,-0.293748 -1.0575,-0.607079 -0.28722,-0.326387 -0.43083,-0.783328 -0.43083,-1.370824 V 69.028112 l 2.74165,-0.607079 v 13.70824 z"
               style="font-weight:bold;font-size:19.5832px;line-height:1.25;font-family:'Reem Kufi';-inkscape-font-specification:'Reem Kufi, Bold';text-align:center;text-anchor:middle;stroke-width:0.146874"
               id="path4784"
               sodipodi:nodetypes="ccscccc" />
            <path
               d="m 122.45494,84.087593 v -2.741648 h 1.56666 V 69.028112 l 2.74164,-0.607079 v 15.216146 q 0,0.234999 -0.19583,0.332915 -0.19583,0.09792 -0.39166,0.117499 -0.19583,0 -0.19583,0 z"
               style="font-weight:bold;font-size:19.5832px;line-height:1.25;font-family:'Reem Kufi';-inkscape-font-specification:'Reem Kufi, Bold';text-align:center;text-anchor:middle;stroke-width:0.146874"
               id="path4786" />
            <path
               d="m 115.22875,84.087593 v -2.741648 h 8.00953 v 2.741648 z m 3.87747,-0.215415 -4.28872,-4.621635 1.66458,-2.291235 4.64121,5.052466 z m -0.66582,-0.763745 v -6.247041 l 2.74164,-0.607079 v 6.85412 z"
               style="font-weight:bold;font-size:19.5832px;line-height:1.25;font-family:'Reem Kufi';-inkscape-font-specification:'Reem Kufi, Bold';text-align:center;text-anchor:middle;stroke-width:0.146874"
               id="path4788" />
            <path
               d="m 112.19336,84.087593 v -2.741648 h 3.81872 v 2.741648 z m -14.981151,-0.97916 v -7.030369 l 2.741648,-0.607079 v 7.637448 z m -1.860404,0.97916 v -2.741648 h 5.385385 v 2.741648 z m 3.524976,0 v -2.741648 h 12.043669 q 0.0196,-0.528746 -0.33292,-0.842078 -0.33291,-0.332914 -1.42957,-0.332914 H 98.876781 v -2.741648 h 10.281179 q 1.44916,0 2.3304,0.411247 0.88125,0.411247 1.33166,1.096659 0.47,0.685412 0.64625,1.507907 0.17624,0.822494 0.17624,1.664572 0.0196,0.822494 0.0196,1.527489 0,0.234999 -0.19583,0.332915 -0.19584,0.09792 -0.39167,0.117499 -0.19583,0 -0.19583,0 z"
               style="font-weight:bold;font-size:19.5832px;line-height:1.25;font-family:'Reem Kufi';-inkscape-font-specification:'Reem Kufi, Bold';text-align:center;text-anchor:middle;stroke-width:0.146874"
               id="path4790" />
            <path
               d="m 93.276003,84.087593 v -2.741648 h 2.859147 v 2.741648 z m -5.072049,2.93748 q 0.861661,0.234999 1.429574,0.176249 0.548329,-0.05875 0.861661,-0.332914 0.313331,-0.274165 0.43083,-0.704996 0.117499,-0.411247 0.117499,-0.900827 v -7.226201 l 2.741648,-0.607079 v 7.83328 q 0,1.03791 -0.450413,1.684155 -0.430831,0.665829 -1.135826,0.959577 -0.704995,0.313331 -1.488323,0.293748 -0.763745,-0.01958 -1.429574,-0.332914 -0.685412,-0.293748 -1.077076,-0.842078 z"
               style="font-weight:bold;font-size:19.5832px;line-height:1.25;font-family:'Reem Kufi';-inkscape-font-specification:'Reem Kufi, Bold';text-align:center;text-anchor:middle;stroke-width:0.146874"
               id="path4792" />
            <path
               d="m 134.16759,95.2696 q -0.1175,0.430831 -0.62666,0.763745 -0.48958,0.313331 -1.17499,0.430831 -0.66583,0.117499 -1.31208,-0.03917 -0.62666,-0.137082 -1.05749,-0.607079 -0.43083,-0.48958 -0.43083,-1.370824 V 81.345945 l 2.74165,-0.607079 v 13.70824 q 0,0.48958 0.21541,0.724578 0.21542,0.215416 0.52875,0.274165 0.31333,0.03917 0.62666,-0.01958 0.31333,-0.07833 0.48958,-0.156666 z"
               style="font-weight:bold;font-size:19.5832px;line-height:1.25;font-family:'Reem Kufi';-inkscape-font-specification:'Reem Kufi, Bold';text-align:center;text-anchor:middle;stroke-width:0.146874"
               id="path4794" />
            <path
               d="m 122.45494,96.405426 v -2.741648 h 1.56666 V 81.345945 l 2.74165,-0.607079 v 15.216146 q 0,0.234999 -0.19583,0.332915 -0.19584,0.09792 -0.39167,0.117499 -0.19583,0 -0.19583,0 z"
               style="font-weight:bold;font-size:19.5832px;line-height:1.25;font-family:'Reem Kufi';-inkscape-font-specification:'Reem Kufi, Bold';text-align:center;text-anchor:middle;stroke-width:0.146874"
               id="path4796" />
            <path
               d="m 105.31968,96.405426 1.64499,-2.741648 h 11.18201 c 0.013,-0.352497 -0.0979,-0.63319 -0.33292,-0.842078 -0.22194,-0.221943 -0.69846,-0.332914 -1.42957,-0.332914 h -8.91036 l 1.77362,-2.763565 1.0949,0.02192 h 6.04184 c 0.86166,0 1.56665,0.110971 2.11498,0.332914 0.56139,0.221943 1.00527,0.522219 1.33166,0.900828 0.32639,0.365553 0.56139,0.783327 0.705,1.253324 0.15666,0.456941 0.25458,0.933466 0.29374,1.429574 h 2.40874 v 2.741648 z"
               style="font-weight:bold;font-size:19.5832px;line-height:1.25;font-family:'Reem Kufi';-inkscape-font-specification:'Reem Kufi, Bold';text-align:center;text-anchor:middle;stroke-width:0.146874"
               id="path4798"
               sodipodi:nodetypes="ccccscccsccccccc" />
            <path
               d="m 113.34881,87.749651 q -0.47,0 -0.80291,-0.332914 -0.33292,-0.332914 -0.33292,-0.802911 0,-0.469997 0.33292,-0.802911 0.33291,-0.332915 0.80291,-0.332915 0.47,0 0.80291,0.332915 0.33291,0.332914 0.33291,0.802911 0,0.469997 -0.33291,0.802911 -0.33291,0.332914 -0.80291,0.332914 z"
               style="font-weight:bold;font-size:19.5832px;line-height:1.25;font-family:'Reem Kufi';-inkscape-font-specification:'Reem Kufi, Bold';text-align:center;text-anchor:middle;stroke-width:0.146874"
               id="path4800" />
            <path
               d="M 97.682258,97.188754 V 92.88045 h 0.274164 v 4.308304 z m -1.449157,-0.783328 v -2.741648 h 3.916639 l 1.27291,2.741648 z m 7.245789,0.783328 V 92.88045 h 0.86166 v 4.308304 z m -2.4479,3.329146 q -0.90083,0 -1.664577,-0.45041 -0.763745,-0.450419 -1.233742,-1.214164 -0.450413,-0.763745 -0.450413,-1.664572 0,-0.92041 0.450413,-1.664572 0.469997,-0.763745 1.233742,-1.214158 0.763747,-0.450414 1.684157,-0.450414 0.90083,0 1.64499,0.450414 0.74416,0.450413 1.19457,1.214158 0.45042,0.744162 0.45042,1.664572 0,0.920411 -0.45042,1.664572 -0.45041,0.763745 -1.19457,1.214164 -0.74416,0.45041 -1.66457,0.45041 z m 0,-2.74165 q 0.25458,0 0.41124,-0.176249 0.15667,-0.156665 0.15667,-0.411247 0,-0.254582 -0.15667,-0.43083 -0.15666,-0.156666 -0.41124,-0.156666 -0.25459,0 -0.43084,0.156666 -0.17624,0.176248 -0.17624,0.43083 0,0.254582 0.17624,0.411247 0.17625,0.176249 0.43084,0.176249 z m 3.30956,-4.8958 -3.30956,-3.329144 q 0.25458,0 0.72457,-0.01958 0.47,-0.03917 0.97916,-0.137083 0.52875,-0.117499 0.95958,-0.332914 0.45041,-0.234998 0.64625,-0.607079 z m -3.30956,3.329144 q -0.90083,0 -1.664577,-0.450414 -0.763745,-0.450413 -1.233742,-1.214158 -0.450413,-0.763745 -0.450413,-1.664572 0,-0.92041 0.450413,-1.664572 0.469997,-0.763745 1.233742,-1.214158 0.763747,-0.450414 1.684157,-0.450414 0.90083,0 1.64499,0.450414 0.74416,0.450413 1.19457,1.214158 0.45042,0.744162 0.45042,1.664572 0,0.92041 -0.45042,1.684155 -0.45041,0.744162 -1.19457,1.194575 -0.74416,0.450414 -1.66457,0.450414 z m 0,-2.741648 q 0.25458,0 0.41124,-0.156666 0.15667,-0.176248 0.15667,-0.43083 0,-0.254582 -0.15667,-0.411247 -0.15666,-0.176249 -0.41124,-0.176249 -0.25459,0 -0.43084,0.176249 -0.17624,0.156665 -0.17624,0.411247 0,0.254582 0.17624,0.43083 0.17625,0.156666 0.43084,0.156666 z"
               style="font-weight:bold;font-size:19.5832px;line-height:1.25;font-family:'Reem Kufi';-inkscape-font-specification:'Reem Kufi, Bold';text-align:center;text-anchor:middle;stroke-width:0.146874"
               id="path4802" />
            <path
               d="m 92.708139,96.405426 v -2.741648 h 4.308304 v 2.741648 z m -2.349984,0 v -2.741648 h 1.566656 v -3.309561 l 2.741648,-0.607079 v 6.207874 q 0,0.234999 -0.195832,0.332915 -0.195832,0.09792 -0.391664,0.117499 -0.195832,0 -0.195832,0 z"
               style="font-weight:bold;font-size:19.5832px;line-height:1.25;font-family:'Reem Kufi';-inkscape-font-specification:'Reem Kufi, Bold';text-align:center;text-anchor:middle;stroke-width:0.146874"
               id="path4804" />
            <path
               d="m 92.375218,100.47872 q -0.469997,0 -0.802911,-0.33291 -0.332914,-0.332915 -0.332914,-0.802911 0,-0.469997 0.332914,-0.802912 0.332914,-0.332914 0.802911,-0.332914 0.469997,0 0.802911,0.332914 0.332915,0.332915 0.332915,0.802912 0,0.469996 -0.332915,0.802911 -0.332914,0.33291 -0.802911,0.33291 z"
               style="font-weight:bold;font-size:19.5832px;line-height:1.25;font-family:'Reem Kufi';-inkscape-font-specification:'Reem Kufi, Bold';text-align:center;text-anchor:middle;stroke-width:0.146874"
               id="path4806" />
            <path
               d="M 85.129473,105.74702 80.605754,92.430036 c -0.522219,-0.926938 -0.7768,-1.742905 -0.763745,-2.4479 0.02611,-0.704995 0.228473,-1.318602 0.607079,-1.840821 0.378609,-0.535274 0.829022,-0.998743 1.351241,-1.390407 0.404719,-0.300275 0.71805,-0.567912 0.939993,-0.802911 0.221943,-0.234999 0.332915,-0.607079 0.332915,-1.116242 l 6.638705,11.573671 h -3.05498 l -3.85789,-6.658288 c -0.07833,0.14361 -0.117499,0.34597 -0.117499,0.607079 0.01305,0.248054 0.08486,0.48958 0.215415,0.724579 l 5.267881,14.668224 z m 2.761231,-9.341594 v -2.741648 h 3.250811 v 2.741648 z m -9.967849,9.341594 2.114986,-3.52498 c 0.130555,0.26111 0.326387,0.45694 0.587496,0.5875 0.261109,0.13055 0.509163,0.19583 0.744161,0.19583 h 3.074563 l 1.174992,2.74165 z"
               style="font-weight:bold;font-size:19.5832px;line-height:1.25;font-family:'Reem Kufi';-inkscape-font-specification:'Reem Kufi, Bold';text-align:center;text-anchor:middle;stroke-width:0.146874"
               id="path4808"
               sodipodi:nodetypes="cccccscccccccccccccccssccc" />
            <path
               d="m 83.817385,109.32752 q -0.469997,0 -0.802911,-0.33291 -0.332915,-0.33292 -0.332915,-0.80291 0,-0.47 0.332915,-0.80291 0.332914,-0.33292 0.802911,-0.33292 0.469997,0 0.802911,0.33292 0.332915,0.33291 0.332915,0.80291 0,0.46999 -0.332915,0.80291 -0.332914,0.33291 -0.802911,0.33291 z m -3.387894,0 q -0.469996,0 -0.802911,-0.33291 -0.332914,-0.33292 -0.332914,-0.80291 0,-0.47 0.332914,-0.80291 0.332915,-0.33292 0.802911,-0.33292 0.469997,0 0.802912,0.33292 0.332914,0.33291 0.332914,0.80291 0,0.46999 -0.332914,0.80291 -0.332915,0.33291 -0.802912,0.33291 z"
               style="font-weight:bold;font-size:19.5832px;line-height:1.25;font-family:'Reem Kufi';-inkscape-font-specification:'Reem Kufi, Bold';text-align:center;text-anchor:middle;stroke-width:0.146874"
               id="path4810" />
          </g>
        </g>
      </g>
    </g>
  </g>
  <g
     inkscape:groupmode="layer"
     id="layer2"
     inkscape:label="Layer 2">
    <g
       id="g32894"
       transform="translate(3.5524782e-6,-12.813388)">
      <g
         id="g43058"
         transform="translate(0.07043384,4.6136154)">
        <text
           xml:space="preserve"
           style="font-size:41.8127px;line-height:1.25;font-family:sans-serif;text-align:center;text-anchor:middle;stroke-width:0.313596"
           x="88.207466"
           y="70.571701"
           id="text1392"><tspan
             sodipodi:role="line"
             id="tspan1390"
             style="font-style:normal;font-variant:normal;font-weight:500;font-stretch:normal;font-size:50.1754px;font-family:'Reem Kufi';-inkscape-font-specification:'Reem Kufi Medium';font-variant-ligatures:normal;font-variant-caps:normal;font-variant-numeric:normal;font-variant-east-asian:normal;stroke-width:0.313596"
             x="88.207466"
             y="70.571701">بيت العلم</tspan></text>
        <text
           xml:space="preserve"
           style="font-style:normal;font-variant:normal;font-weight:normal;font-stretch:normal;font-size:12.5438px;line-height:1.25;font-family:'DecoType Thuluth';-inkscape-font-specification:'DecoType Thuluth, Normal';font-variant-ligatures:normal;font-variant-caps:normal;font-variant-numeric:normal;font-variant-east-asian:normal;text-align:center;text-anchor:middle;stroke-width:0.313596"
           x="88.105408"
           y="98.927025"
           id="text25476"><tspan
             sodipodi:role="line"
             id="tspan25474"
             style="font-style:normal;font-variant:normal;font-weight:normal;font-stretch:normal;font-size:12.5438px;font-family:'DecoType Thuluth';-inkscape-font-specification:'DecoType Thuluth, Normal';font-variant-ligatures:normal;font-variant-caps:normal;font-variant-numeric:normal;font-variant-east-asian:normal;fill:#a7c957;fill-opacity:1;stroke-width:0.313596"
             x="88.105408"
             y="98.927025">قُلْ هَلْ يَسْتَوِى ٱلَّذِينَ يَعْلَمُونَ وَٱلَّذِينَ لَا يَعْلَمُونَ</tspan></text>
      </g>
    </g>
  </g>
</svg>
